<svg xmlns="http://www.w3.org/2000/svg" width="14" height="17.231" viewBox="0 0 14 17.231">
  <path id="_111104_user_business_man_icon" data-name="111104_user_business_man_icon" d="M86.862,44.366a5.321,5.321,0,0,0-2.972-1.985l-1.224,4.286a.718.718,0,1,1-1.436,0v-3.41a.9.9,0,1,0-1.795,0v3.41a.718.718,0,1,1-1.436,0l-1.224-4.286A5.339,5.339,0,0,0,73.8,44.366a3.256,3.256,0,0,0-.47,1.583c0,.108,0,.233,0,.359v1.436a1.435,1.435,0,0,0,1.436,1.436H85.9a1.436,1.436,0,0,0,1.436-1.436V46.308c0-.125,0-.251,0-.359A3.261,3.261,0,0,0,86.862,44.366Zm-10.3-8.619c0,2.1,1.307,5.176,3.769,5.176,2.42,0,3.769-3.08,3.769-5.176a3.769,3.769,0,1,0-7.538,0Z" transform="translate(-73.332 -31.949)" fill="#df191e"/>
</svg>
