<svg xmlns="http://www.w3.org/2000/svg" width="231" height="170" viewBox="0 0 231 170">
  <g id="icone-visao-caixa" transform="translate(-884 -2414)">
    <rect id="Retângulo_1387" data-name="Retângulo 1387" width="231" height="170" transform="translate(884 2414)" fill="none"/>
    <g id="Grupo_27" data-name="Grupo 27" transform="translate(0 312)">
      <path id="Caminho_125" data-name="Caminho 125" d="M1489.585,901.064a24.5,24.5,0,1,0,24.5-24.5A24.527,24.527,0,0,0,1489.585,901.064Zm45.418,0a20.919,20.919,0,1,1-20.919-20.919A20.943,20.943,0,0,1,1535,901.064Z" transform="translate(-514.084 1286.049)" fill="#151515"/>
      <path id="Caminho_126" data-name="Caminho 126" d="M1567.223,947.671a1.8,1.8,0,0,0,1.789,1.763h.125a6.339,6.339,0,0,1,.595,12.649c-.2.019-.407.029-.609.029a6.339,6.339,0,0,1-4.873-10.379,1.79,1.79,0,0,0-2.759-2.282,9.92,9.92,0,0,0,7.625,16.241h0v0c.315,0,.636-.015.953-.045a9.919,9.919,0,0,0-1.084-19.793A1.793,1.793,0,0,0,1567.223,947.671Z" transform="translate(-569.135 1231.27)" fill="#151515"/>
      <path id="Caminho_127" data-name="Caminho 127" d="M1814.429,984.587h-14.305a1.79,1.79,0,0,0,0,3.581h14.305a1.79,1.79,0,1,0,0-3.581Z" transform="translate(-758.187 1200.645)" fill="#c40f14"/>
      <path id="Caminho_128" data-name="Caminho 128" d="M1347.316,986.377a1.793,1.793,0,0,0-1.79-1.79H1331.22a1.79,1.79,0,0,0,0,3.581h14.305A1.792,1.792,0,0,0,1347.316,986.377Z" transform="translate(-387.463 1200.645)" fill="#c40f14"/>
      <path id="Caminho_129" data-name="Caminho 129" d="M1599.833,733.862a1.792,1.792,0,0,0,1.79-1.79V717.766a1.79,1.79,0,1,0-3.58,0v14.306A1.792,1.792,0,0,0,1599.833,733.862Z" transform="translate(-599.833 1413.012)" fill="#c40f14"/>
      <path id="Caminho_130" data-name="Caminho 130" d="M1599.833,1184.878a1.792,1.792,0,0,0-1.79,1.79v14.306a1.79,1.79,0,0,0,3.58,0v-14.306A1.792,1.792,0,0,0,1599.833,1184.878Z" transform="translate(-599.833 1042.289)" fill="#c40f14"/>
      <path id="Caminho_131" data-name="Caminho 131" d="M1478.354,1041.339a1.77,1.77,0,0,0-1.121.4c-9.937,7.99-25.4,17.514-42.639,17.514s-32.7-9.524-42.638-17.514a1.79,1.79,0,0,0-2.243,2.791c10.385,8.35,26.6,18.3,44.882,18.3s34.5-9.954,44.882-18.3a1.79,1.79,0,0,0-1.123-3.185Z" transform="translate(-434.595 1155.775)" fill="#151515"/>
      <path id="Caminho_132" data-name="Caminho 132" d="M1390.836,864.663a1.771,1.771,0,0,0,1.121-.4c9.938-7.99,25.4-17.515,42.639-17.515s32.7,9.524,42.638,17.514a1.79,1.79,0,0,0,2.517-.274,1.792,1.792,0,0,0-.274-2.517c-10.385-8.35-26.6-18.3-44.882-18.3s-34.5,9.954-44.883,18.3a1.79,1.79,0,0,0,1.123,3.185Z" transform="translate(-434.596 1312.449)" fill="#151515"/>
    </g>
  </g>
</svg>
