<svg xmlns="http://www.w3.org/2000/svg" width="133.803" height="126.484" viewBox="0 0 133.803 126.484">
  <g id="Grupo_1207" data-name="Grupo 1207" transform="translate(-451 -2128.99)">
    <path id="Caminho_115" data-name="Caminho 115" d="M1094.035,795.209h0a1.987,1.987,0,0,0,.532-.073l.526-.149a1.97,1.97,0,0,0-.534-3.865,2.015,2.015,0,0,0-.538.074l-.527.149a1.969,1.969,0,0,0,.54,3.864Z" transform="translate(-515.98 1355.967)" fill="#c40f14"/>
    <path id="Caminho_116" data-name="Caminho 116" d="M686.829,873.21a5.3,5.3,0,0,1,1.436-.2,7.632,7.632,0,0,1,4.7,1.85,1.952,1.952,0,0,0,1.215.416,1.993,1.993,0,0,0,1.554-.727,1.968,1.968,0,0,0-.312-2.767,12.471,12.471,0,0,0-4.59-2.376,9.971,9.971,0,0,0-2.551-.339,9.257,9.257,0,0,0-2.52.349,9.491,9.491,0,0,0-4.339,2.655,12.513,12.513,0,0,0-2.671,4.448,20.193,20.193,0,0,0,6.009,21.28,12.49,12.49,0,0,0,4.6,2.394,9.4,9.4,0,0,0,9.427-2.662,12.509,12.509,0,0,0,2.67-4.447,1.973,1.973,0,0,0-1.188-2.52,1.907,1.907,0,0,0-.642-.111,2.018,2.018,0,0,0-1.878,1.3,6.88,6.88,0,0,1-4.372,4.641,5.28,5.28,0,0,1-1.433.195,7.663,7.663,0,0,1-4.722-1.863,16.286,16.286,0,0,1-4.767-16.877A6.892,6.892,0,0,1,686.829,873.21Z" transform="translate(-194.272 1295.438)" fill="#151515"/>
    <path id="Caminho_117" data-name="Caminho 117" d="M650.5,808.616a2.013,2.013,0,0,0,1.764,1.03,1.925,1.925,0,0,0,.9-.223,1.975,1.975,0,0,0,.807-2.668,42,42,0,0,0-5.86-8.386,32.582,32.582,0,0,0-7.185-6.014,23.615,23.615,0,0,0-8.058-3.133,19.536,19.536,0,0,0-3.421-.307,18.2,18.2,0,0,0-4.951.683,18.844,18.844,0,0,0-8.761,5.459,26.367,26.367,0,0,0-5.489,9.461c-2.59,7.53-2.642,16.548-.146,25.393s7.26,16.5,13.407,21.566a26.339,26.339,0,0,0,9.625,5.189,19,19,0,0,0,10.325.073,18.555,18.555,0,0,0,7.332-4.06,23.578,23.578,0,0,0,5.229-6.886,32.488,32.488,0,0,0,2.977-8.881A41.894,41.894,0,0,0,659.6,826.7a1.97,1.97,0,0,0-1.966-1.851,2.024,2.024,0,0,0-1.471.661,1.955,1.955,0,0,0-.494,1.424,33.585,33.585,0,0,1-3.157,17.064c-2.4,4.665-5.9,7.762-10.129,8.955a14.194,14.194,0,0,1-3.85.526c-4.191,0-8.523-1.743-12.526-5.04-5.533-4.557-9.837-11.516-12.119-19.594s-2.252-16.265.081-23.04c2.246-6.527,6.363-10.935,11.6-12.411a14.293,14.293,0,0,1,3.887-.535,18.145,18.145,0,0,1,9.43,2.87A33.542,33.542,0,0,1,650.5,808.616Z" transform="translate(-140.294 1357.682)" fill="#151515"/>
    <path id="Caminho_118" data-name="Caminho 118" d="M607.691,761.054a1.969,1.969,0,0,0-1.666,2.231c1.627,11.248.445,22.232-3.33,30.93-3.729,8.591-9.818,14.463-17.146,16.533a22.453,22.453,0,0,1-6.09.817c-6.9,0-14.3-2.881-20.823-8.112-9.157-7.341-16.192-18.439-19.81-31.25s-3.425-25.946.539-36.993c3.781-10.533,10.75-17.93,19.121-20.3a22.183,22.183,0,0,1,6.025-.818,30.255,30.255,0,0,1,17.081,5.831c7.715,5.349,14.454,13.974,18.978,24.285a2.015,2.015,0,0,0,1.831,1.17,1.926,1.926,0,0,0,.768-.159,1.971,1.971,0,0,0,1.009-2.6,69.253,69.253,0,0,0-8.93-15.028,53.414,53.414,0,0,0-11.412-10.911,36.841,36.841,0,0,0-12.954-5.86,28.925,28.925,0,0,0-6.253-.7,26.565,26.565,0,0,0-7.212.995,28.58,28.58,0,0,0-13.175,8.243,41.638,41.638,0,0,0-8.583,14.512,58.919,58.919,0,0,0-3.32,18.623A71.969,71.969,0,0,0,543.6,792.389a58.93,58.93,0,0,0,12.57,14.136,41.667,41.667,0,0,0,14.908,7.88,30.916,30.916,0,0,0,8.185,1.14h0a26.837,26.837,0,0,0,19.051-7.865,37,37,0,0,0,7.993-11.9,53.6,53.6,0,0,0,3.972-15.424,69.477,69.477,0,0,0-.358-17.637A1.984,1.984,0,0,0,607.691,761.054Z" transform="translate(-81.321 1418.863)" fill="#151515"/>
    <path id="Caminho_119" data-name="Caminho 119" d="M795.407,823.376l.306-7.45a1.968,1.968,0,0,0-2.63-1.937l-13.927,4.975a1.974,1.974,0,0,0-1.055.889l-4.256,7.566-43.7,12.339a1.974,1.974,0,0,0-1.361,2.432,2.015,2.015,0,0,0,1.92,1.43,1.913,1.913,0,0,0,.512-.07l43.7-12.341,7.584,4.221a1.964,1.964,0,0,0,1.369.206l14.466-3.045a1.966,1.966,0,0,0,1.23-3.023Zm-11.633,8.253-5.923-3.3,3.323-5.908,10.483-3.743-.212,5.175a1.974,1.974,0,0,0,.333,1.181l2.888,4.3Z" transform="translate(-233.822 1338.301)" fill="#151515"/>
    <path id="Caminho_120" data-name="Caminho 120" d="M1054.643,803.2a1.969,1.969,0,0,0-1.717-2.932,1.992,1.992,0,0,0-.538.074l-2.355.666a1.968,1.968,0,0,0-1.361,2.43,2.017,2.017,0,0,0,1.918,1.431v0a1.937,1.937,0,0,0,.513-.07l2.355-.665A1.953,1.953,0,0,0,1054.643,803.2Z" transform="translate(-482.229 1348.867)" fill="#c40f14"/>
    <path id="Caminho_121" data-name="Caminho 121" d="M1086.444,857.964a1.967,1.967,0,0,0-2.43-1.361l-8.887,2.51a1.97,1.97,0,0,0-1.361,2.431,2.02,2.02,0,0,0,1.92,1.432v0a1.886,1.886,0,0,0,.512-.071l8.885-2.51A1.973,1.973,0,0,0,1086.444,857.964Z" transform="translate(-501.715 1305.178)" fill="#c40f14"/>
    <path id="Caminho_122" data-name="Caminho 122" d="M622.314,1183.956a1.924,1.924,0,0,0-.5-.067,1.97,1.97,0,0,0-1.9,1.475l-4.341,16.678a1.969,1.969,0,0,0,3.812.991l4.342-16.677a1.969,1.969,0,0,0-1.407-2.4Z" transform="translate(-145.915 1050.969)" fill="#c40f14"/>
    <path id="Caminho_123" data-name="Caminho 123" d="M813.573,1194.639a1.969,1.969,0,1,0-3.707,1.331l5.229,14.565a2.019,2.019,0,0,0,1.883,1.3,1.872,1.872,0,0,0,.635-.11,1.968,1.968,0,0,0,1.188-2.519Z" transform="translate(-296.755 1043.635)" fill="#c40f14"/>
    <path id="Caminho_124" data-name="Caminho 124" d="M742.227,1221.209a1.972,1.972,0,0,0-1.97,1.97v8.338a1.97,1.97,0,0,0,3.939,0v-8.338A1.972,1.972,0,0,0,742.227,1221.209Z" transform="translate(-242.791 1021.988)" fill="#c40f14"/>
  </g>
</svg>
