<svg xmlns="http://www.w3.org/2000/svg" width="107.896" height="109.518" viewBox="0 0 107.896 109.518">
  <g id="Grupo_1209" data-name="Grupo 1209" transform="translate(-1451.052 -2128.988)">
    <path id="Caminho_133" data-name="Caminho 133" d="M695.615,1824.361l-.02.024-.023.027-.018.025-.021.029-.017.025-.02.03-.016.026-.019.031-.015.026-.017.032-.014.027-.016.033-.012.028-.014.034-.011.029-.013.035-.01.03c0,.012-.007.023-.01.035s-.006.021-.008.031-.006.023-.009.035,0,.021-.007.032-.005.023-.007.035,0,.022-.005.033,0,.023-.005.035,0,.023,0,.034,0,.023,0,.035,0,.023,0,.035,0,.023,0,.035,0,.023,0,.035,0,.024,0,.036,0,.023,0,.035,0,.021,0,.032l1.205,18.188a1.388,1.388,0,0,0,1.383,1.3c.031,0,.062,0,.093,0a1.387,1.387,0,0,0,1.293-1.476l-.511-7.72,10.5-.8a1.388,1.388,0,0,0,.992-2.232l-2.591-3.352,2.459-4.187a1.388,1.388,0,0,0-1.3-2.087l-12.244.9-.028,0-.038,0-.032,0-.038.006-.031.006-.038.007-.03.008-.037.01-.03.009-.036.011-.03.011-.034.012-.03.013-.032.014-.03.014-.031.015-.029.016-.03.016-.029.017-.029.017-.028.019-.027.019-.027.02-.027.02-.026.021-.026.021-.024.022-.025.023-.023.023-.025.024-.021.024Zm9.259,5.856,1.591,2.058-7.908.6-.419-6.325,8.233-.6-1.6,2.716A1.388,1.388,0,0,0,704.874,1830.218Z" transform="translate(806.293 326.012)" fill="#151515"/>
    <path id="Caminho_134" data-name="Caminho 134" d="M512.4,2047.421a1.388,1.388,0,0,0,1.878-.569l7.39-13.812c.011-.02.02-.04.03-.059s.022-.038.033-.058a1.387,1.387,0,0,0-.569-1.878l-3.032-1.622,5.842-3.63.237,7.323a1.388,1.388,0,0,0-.277,2.558l1.072.573a1.387,1.387,0,0,0,2.041-1.268l-.377-11.678a1.388,1.388,0,0,0-2.119-1.134l-9.925,6.166a1.388,1.388,0,0,0,.078,2.4l3.928,2.1-6.8,12.706A1.387,1.387,0,0,0,512.4,2047.421Z" transform="translate(953.86 166.092)" fill="#151515"/>
    <path id="Caminho_135" data-name="Caminho 135" d="M486.875,2180.695a1.386,1.386,0,0,0,1.878-.569l1.047-1.956a1.387,1.387,0,1,0-2.447-1.309l-1.047,1.956A1.388,1.388,0,0,0,486.875,2180.695Z" transform="translate(974.378 42.184)" fill="#151515"/>
    <path id="Caminho_136" data-name="Caminho 136" d="M836.6,2022.123a1.387,1.387,0,0,0-.732,1.179l-.378,11.678a1.387,1.387,0,0,0,2.041,1.268l1.072-.573a1.387,1.387,0,0,0-.276-2.558l.237-7.323,5.842,3.63-3.032,1.622a1.387,1.387,0,0,0-.569,1.878c.011.02.022.039.033.058s.019.039.029.058L849.3,2048.8a1.388,1.388,0,1,0,2.447-1.309l-7.839-14.652,3.928-2.1a1.388,1.388,0,0,0,.078-2.4l-9.925-6.166A1.387,1.387,0,0,0,836.6,2022.123Z" transform="translate(693.596 166.092)" fill="#151515"/>
    <path id="Caminho_137" data-name="Caminho 137" d="M922.823,2183.32a1.388,1.388,0,0,0,2.447-1.309l-.629-1.176a1.388,1.388,0,0,0-2.447,1.309Z" transform="translate(624.046 38.99)" fill="#151515"/>
    <path id="Caminho_138" data-name="Caminho 138" d="M627.268,1924.538l-3.738,3.738a1.388,1.388,0,0,0,1.962,1.962l3.738-3.738a1.388,1.388,0,1,0-1.962-1.962Z" transform="translate(864.282 244.719)" fill="#c40f14"/>
    <path id="Caminho_139" data-name="Caminho 139" d="M789.486,1765.67a1.383,1.383,0,0,0,.981-.406l3.738-3.738a1.387,1.387,0,0,0-1.962-1.962L788.5,1763.3a1.387,1.387,0,0,0,.981,2.369Z" transform="translate(731.689 377.311)" fill="#c40f14"/>
    <path id="Caminho_140" data-name="Caminho 140" d="M792.242,1930.238a1.388,1.388,0,0,0,1.962-1.962l-3.738-3.738a1.388,1.388,0,0,0-1.962,1.962Z" transform="translate(731.689 244.719)" fill="#c40f14"/>
    <path id="Caminho_141" data-name="Caminho 141" d="M627.268,1765.264a1.388,1.388,0,0,0,1.962-1.962l-3.738-3.738a1.387,1.387,0,0,0-1.962,1.962Z" transform="translate(864.282 377.311)" fill="#c40f14"/>
    <path id="Caminho_142" data-name="Caminho 142" d="M586.4,1853.942h5.286a1.387,1.387,0,0,0,0-2.775H586.4a1.387,1.387,0,1,0,0,2.775Z" transform="translate(894.913 303.361)" fill="#c40f14"/>
    <path id="Caminho_143" data-name="Caminho 143" d="M818.32,1852.555a1.388,1.388,0,0,0,1.388,1.387h5.286a1.387,1.387,0,1,0,0-2.775h-5.286A1.388,1.388,0,0,0,818.32,1852.555Z" transform="translate(707.399 303.361)" fill="#c40f14"/>
    <path id="Caminho_144" data-name="Caminho 144" d="M716.52,1729.107a1.388,1.388,0,0,0,1.388-1.388v-5.286a1.387,1.387,0,1,0-2.775,0v5.286A1.387,1.387,0,0,0,716.52,1729.107Z" transform="translate(790.333 407.941)" fill="#c40f14"/>
    <path id="Caminho_145" data-name="Caminho 145" d="M544.414,2006.318H525.5l-32.411-62.4a1.387,1.387,0,0,0-2.463,0l-32.411,62.4H439.294a1.388,1.388,0,0,0,0,2.775H544.414a1.388,1.388,0,0,0,0-2.775Zm-52.56-58.746,12.437,23.943a1.374,1.374,0,0,0-.224.272l-2.636,4.194L498.8,1971.8a1.405,1.405,0,0,0-.133-.181l0,0-.043-.047-.024-.024-.023-.023-.048-.043h0a1.386,1.386,0,0,0-.293-.194l-.017-.008-.042-.02-.044-.018-.016-.006-.059-.021h0a1.39,1.39,0,0,0-.256-.059h0l-.056-.006h-.013l-.047,0h-.12l-.045,0-.016,0-.054.005h-.007l-.061.009h0a1.375,1.375,0,0,0-.192.049l0,0-.056.02-.018.008-.041.017-.046.022-.013.006a1.375,1.375,0,0,0-.342.24l-.02.019-.027.027-.038.042-.006.007a1.381,1.381,0,0,0-.132.179l-4.585,7.295-4.585-7.294a1.381,1.381,0,0,0-.132-.18l0-.005c-.013-.015-.026-.03-.04-.044l-.026-.026-.021-.021c-.016-.015-.032-.03-.049-.045h0a1.411,1.411,0,0,0-.293-.195l-.012-.006-.047-.022-.04-.016-.02-.008-.054-.019-.007,0-.062-.019h0l-.064-.016h0l-.063-.013h0l-.059-.009-.009,0-.052-.005-.018,0-.042,0h-.12l-.049,0h-.011l-.059.006h0a1.387,1.387,0,0,0-.319.081l-.013.005-.047.019-.038.018-.021.01a1.4,1.4,0,0,0-.292.194l0,0-.048.043-.022.022-.025.025-.041.044,0,0a1.4,1.4,0,0,0-.132.18l-2.63,4.184-2.636-4.194a1.374,1.374,0,0,0-.224-.272Zm-30.515,58.746,16.619-31.994,3.144,5a1.388,1.388,0,0,0,2.349,0l2.636-4.194,4.591,7.3a1.388,1.388,0,0,0,2.35,0l4.592-7.3,2.636,4.194a1.387,1.387,0,0,0,2.349,0l3.145-5,16.619,31.994Z" transform="translate(1013.146 229.412)" fill="#151515"/>
  </g>
</svg>
