<svg xmlns="http://www.w3.org/2000/svg" width="65.725" height="65.725" viewBox="0 0 65.725 65.725">
  <g id="icone-scroll-to-top" transform="translate(-3.375 -3.375)">
    <path id="Caminho_168" data-name="Caminho 168" d="M10.871,32.437a3.061,3.061,0,0,1,0-4.313l15.12-15.072a3.046,3.046,0,0,1,4.2-.095l14.9,14.851a3.044,3.044,0,1,1-4.3,4.313L28,19.513,15.184,32.453A3.047,3.047,0,0,1,10.871,32.437Z" transform="translate(8.24 10.957)" fill="#c40f14"/>
    <path id="Caminho_169" data-name="Caminho 169" d="M36.237,69.1A32.862,32.862,0,1,0,3.375,36.237,32.857,32.857,0,0,0,36.237,69.1Zm0-5.056A27.8,27.8,0,0,1,16.583,16.583,27.8,27.8,0,1,1,55.891,55.891,27.568,27.568,0,0,1,36.237,64.044Z" fill="#c40f14"/>
  </g>
</svg>
