<svg id="_104425_instagram_icon" data-name="104425_instagram_icon" xmlns="http://www.w3.org/2000/svg" width="46.344" height="46.344" viewBox="0 0 46.344 46.344">
  <path id="Caminho_110" data-name="Caminho 110" d="M38.244,24.124V19.855l-.555,0-3.714.013.014,4.268Z" transform="translate(-5.507 -6.025)" fill="#c40f14"/>
  <path id="Caminho_111" data-name="Caminho 111" d="M27.947,34.312a4.427,4.427,0,1,0-4.433-4.433A4.439,4.439,0,0,0,27.947,34.312Z" transform="translate(-4.89 -6.354)" fill="#c40f14"/>
  <path id="Caminho_112" data-name="Caminho 112" d="M26.9,5.158A23.172,23.172,0,1,0,50.067,28.329,23.171,23.171,0,0,0,26.9,5.158ZM39.377,26.1V36.411a4.874,4.874,0,0,1-4.869,4.867H19.051a4.873,4.873,0,0,1-4.868-4.867V20.955a4.873,4.873,0,0,1,4.868-4.868H34.508a4.874,4.874,0,0,1,4.869,4.868V26.1Z" transform="translate(-3.723 -5.158)" fill="#c40f14"/>
  <path id="Caminho_113" data-name="Caminho 113" d="M34.478,29.995a6.887,6.887,0,1,1-13.269-2.586h-3.76V37.724a2.415,2.415,0,0,0,2.413,2.413H35.317a2.415,2.415,0,0,0,2.413-2.413V27.409H33.968A6.823,6.823,0,0,1,34.478,29.995Z" transform="translate(-4.532 -6.47)" fill="#c40f14"/>
</svg>
