<svg xmlns="http://www.w3.org/2000/svg" width="65.94" height="40.24" viewBox="0 0 65.94 40.24">
  <path id="logo-chic-scroll-vermelho" d="M150.963,15.879v1.967h-.909c-1.1,0-1.283.158-1.283,1.6V23.3h5.561V19.447c0-1.443-.141-1.6-1.264-1.6h-.89V15.879h6.912v1.967h-.755c-1.117,0-1.283.158-1.283,1.6v10.3c0,1.485.166,1.6,1.283,1.6h.755v2.021h-6.912V31.351h.89c1.123,0,1.264-.116,1.264-1.6V25.432h-5.561v4.317c0,1.485.184,1.6,1.283,1.6h.909v2.021h-6.924V31.351h.767c1.117,0,1.289-.116,1.289-1.6v-10.3c0-1.443-.171-1.6-1.289-1.6h-.767V15.879h6.924m15.972,0v1.967h-.817c-1.123,0-1.289.158-1.289,1.6v10.3c0,1.485.166,1.6,1.289,1.6h.817v2.021H159.98V31.351h.86c1.093,0,1.227-.116,1.227-1.6v-10.3c0-1.443-.135-1.6-1.227-1.6h-.86V15.879h6.955m-29.753-.548a4.986,4.986,0,0,1,3.738,1.8l.374-1.559h1.375v7.166h-1.491c-.295-3.379-1.651-5.267-3.64-5.267-2.314,0-3.8,2.618-3.8,7.246,0,4.4,1.448,6.747,3.855,6.747,1.848,0,3.087-1.674,3.437-4.9h1.639c-.257,4.707-2.216,7.313-5.34,7.313a5.463,5.463,0,0,1-4.585-2.429,11.455,11.455,0,0,1-2.008-6.856,11.12,11.12,0,0,1,1.983-6.753,5.45,5.45,0,0,1,4.463-2.515m37.383,0a4.943,4.943,0,0,1,3.726,1.8l.374-1.559h1.387v7.166h-1.467c-.319-3.379-1.682-5.267-3.658-5.267-2.315,0-3.788,2.618-3.788,7.246,0,4.4,1.455,6.747,3.824,6.747,1.885,0,3.082-1.674,3.444-4.9h1.645c-.258,4.707-2.191,7.313-5.316,7.313a5.475,5.475,0,0,1-4.61-2.429,11.5,11.5,0,0,1-2-6.856,10.888,10.888,0,0,1,2-6.753,5.378,5.378,0,0,1,4.438-2.515M155.475,9.686h-.025c-8.7,0-16.574,1.717-22.246,4.469-5.506,2.722-8.907,6.326-8.907,10.272,0,3.964,3.4,7.581,8.907,10.241,5.672,2.8,13.541,4.5,22.246,4.5h.025c8.692,0,16.574-1.7,22.252-4.5,5.482-2.661,8.876-6.278,8.876-10.241,0-3.946-3.395-7.55-8.876-10.272-5.678-2.752-13.56-4.469-22.252-4.469m0-1.82c8.98,0,17.138,1.772,23.031,4.676,6.12,3,9.92,7.191,9.92,11.885,0,4.713-3.8,8.908-9.92,11.886-5.893,2.88-14.051,4.676-23.031,4.676v.024h-.025V40.99c-8.975,0-17.151-1.8-23.056-4.676-6.114-2.978-9.908-7.173-9.908-11.886,0-4.695,3.794-8.89,9.908-11.885,5.905-2.9,14.081-4.676,23.056-4.676h.025m-23.781,32.52.27.134a1.188,1.188,0,0,0,.644.14,1.423,1.423,0,0,0,.491-.39l.362.146-.755,1.687-.35-.189a.8.8,0,0,0-.577-1l-.24-.128-.613,1.3a.692.692,0,0,0-.055.548,1.471,1.471,0,0,0,.552.39,1.794,1.794,0,0,0,1.829-.274l.393.188-.872,1.187-4.027-1.814.166-.432.055.024a.988.988,0,0,0,.546.1c.16-.03.276-.17.356-.4l1.277-2.765a.851.851,0,0,0,.031-.53.929.929,0,0,0-.442-.353l-.031-.018.178-.426,3.91,1.766-.184,1.358-.411-.2a1.718,1.718,0,0,0-.295-.834,1.9,1.9,0,0,0-.755-.578.975.975,0,0,0-.6-.116c-.16.03-.258.17-.362.39l-.5,1.09m3.26,3.3a.805.805,0,0,0-.025.505.944.944,0,0,0,.5.3l-.135.426-1.792-.506.135-.444a.808.808,0,0,0,.565,0,.631.631,0,0,0,.276-.426l.951-3.264a.865.865,0,0,0-.2-.268,1.318,1.318,0,0,0-.393-.171l.141-.444,1.915.542.5,3.933,2.5-3.05,1.817.548-.135.445a1.137,1.137,0,0,0-.608-.037.751.751,0,0,0-.27.457l-.835,2.892a.648.648,0,0,0,0,.511.9.9,0,0,0,.51.3l-.117.457-2.535-.761.117-.426a.929.929,0,0,0,.614,0c.141-.012.2-.183.276-.426l.9-3-2.94,3.556-.27-.085-.583-4.573-.872,3m8.33.841-.258,1.364c-.049.256-.037.426.056.524.08.122.239.189.528.256a.819.819,0,0,0,.651-.121,1.305,1.305,0,0,0,.362-.694,1.083,1.083,0,0,0-.129-.846,1.169,1.169,0,0,0-.823-.408l-.387-.073m.1-.457.516.085a1.066,1.066,0,0,0,.767-.055.983.983,0,0,0,.344-.627.847.847,0,0,0-.1-.682.693.693,0,0,0-.564-.335.662.662,0,0,0-.5.03.581.581,0,0,0-.239.444l-.221,1.139m-.018,2.879-2.407-.475.111-.445a1.174,1.174,0,0,0,.577-.03.605.605,0,0,0,.276-.463l.6-2.959a.817.817,0,0,0-.086-.524,1.072,1.072,0,0,0-.534-.274l.067-.426,2.517.493a2.347,2.347,0,0,1,1.32.627,1.115,1.115,0,0,1,.313,1.09.791.791,0,0,1-.393.615,1.562,1.562,0,0,1-.835.274,2.236,2.236,0,0,1,.822.749,1.1,1.1,0,0,1,.153.81,1.344,1.344,0,0,1-.331.633,1.068,1.068,0,0,1-.577.371,1.215,1.215,0,0,1-.589.085,7.4,7.4,0,0,1-1.007-.152m2.142.42.061-.45h.055a.874.874,0,0,0,.417-.073,1.439,1.439,0,0,0,.325-.408l1.578-3.075.037-.121.031-.1-.062-.158-.147-.116.03-.274,1.031-.2.19.012,1.111,4.457.1.311.178.189.166.079.239.067-.055.457-2.443-.286.067-.438a.851.851,0,0,0,.473-.036.413.413,0,0,0,.148-.256v-.14l-.037-.183-.16-.6-1.676-.188-.258.548-.086.182-.031.1a.389.389,0,0,0,.08.292,1.089,1.089,0,0,0,.417.134l-.074.475-1.713-.207m3.223-1.655-.479-1.881-.871,1.747,1.351.134m2.228,2.307.018-.481c.289,0,.479-.031.577-.146.123-.073.178-.244.178-.5l.068-3a.783.783,0,0,0-.135-.518.911.911,0,0,0-.571-.153l-.037-.018v-.457l2.677.073-.012.469h-.055c-.257-.012-.442.036-.515.14-.117.067-.184.237-.184.493l-.067,3.014c0,.25.031.426.154.505a.8.8,0,0,0,.565.17l.381.019a1.548,1.548,0,0,0,.994-.359,3.048,3.048,0,0,0,.749-1h.46l-.46,1.838-4.782-.085m5.377.067-.025-.445h.025a.7.7,0,0,0,.417-.152.765.765,0,0,0,.239-.439l1.117-3.3v-.122l.018-.085c-.018-.079-.018-.116-.055-.146a.286.286,0,0,0-.2-.091l-.024-.3,1-.341.184-.018,1.8,4.219.153.286.209.17.172.049h.251l.018.481-2.449.116-.025-.457a.711.711,0,0,0,.442-.14c.111-.049.142-.1.123-.231l-.012-.158-.086-.188-.239-.542-1.658.067-.2.578-.049.207-.018.116a.388.388,0,0,0,.141.274.993.993,0,0,0,.423.067l.025.463-1.725.067m2.885-2.118-.755-1.814-.62,1.887,1.375-.073m6.415.06a.717.717,0,0,0-.209-.475.994.994,0,0,0-.577-.085l-.055-.463,2.4-.323.068.481a.634.634,0,0,0-.5.712l.122.834a3.207,3.207,0,0,1-.927.578,5.29,5.29,0,0,1-1.2.353,3.128,3.128,0,0,1-2.259-.457A2.588,2.588,0,0,1,161.46,45.3a2.72,2.72,0,0,1,.012-.919,2.454,2.454,0,0,1,.35-.852,2.1,2.1,0,0,1,.835-.865,3.3,3.3,0,0,1,1.166-.426h.565l.6.1a1.231,1.231,0,0,0,.5.067c.055,0,.092-.036.135-.085l.061-.219.461-.049.295,1.766-.448.055a1.982,1.982,0,0,0-.816-.919,1.784,1.784,0,0,0-1.2-.219,1.25,1.25,0,0,0-1.074.694,2.652,2.652,0,0,0-.184,1.614,2.8,2.8,0,0,0,.663,1.6,1.434,1.434,0,0,0,1.307.445,2.162,2.162,0,0,0,.54-.171,1.306,1.306,0,0,0,.485-.31l-.068-.579m3.665-2.155.295-.055a1.021,1.021,0,0,0,.54-.292,1.1,1.1,0,0,0,.215-.591l.374-.1.393,1.8-.393.049a.893.893,0,0,0-.405-.438.951.951,0,0,0-.62-.018l-.319.067.337,1.376c.062.256.135.426.27.5a1.176,1.176,0,0,0,.645-.024,1.575,1.575,0,0,0,.823-.475,1.476,1.476,0,0,0,.5-.865l.417-.085.018,1.48-4.3.986-.1-.462h.037a1.031,1.031,0,0,0,.516-.268.669.669,0,0,0,.037-.511l-.676-2.978a.761.761,0,0,0-.251-.45.977.977,0,0,0-.583-.024l-.037.024-.111-.451,4.193-.95.651,1.206-.436.085a1.522,1.522,0,0,0-.73-.505,2.02,2.02,0,0,0-.97.012.913.913,0,0,0-.54.262.78.78,0,0,0-.031.56l.252,1.138m8.919.505-.448.158-4.493-2.721.964,2.679c.086.262.166.377.289.426a.773.773,0,0,0,.546-.049l.153.445-1.731.627-.16-.408a1.167,1.167,0,0,0,.454-.335.79.79,0,0,0-.012-.53l-1.154-3.185a.364.364,0,0,0-.307-.116,1.066,1.066,0,0,0-.448.1l-.16-.457,1.51-.53,3.959,2.411-.847-2.344c-.074-.262-.172-.359-.295-.408a.83.83,0,0,0-.583.018l-.153-.426,1.786-.645.148.438a.907.907,0,0,0-.461.341.6.6,0,0,0,.019.512l1.424,3.994m1.645-.8-.393.183-.835-1.711.387-.176a3.194,3.194,0,0,0,1.111.718,1.127,1.127,0,0,0,.958-.055.71.71,0,0,0,.43-.457.594.594,0,0,0-.031-.6.428.428,0,0,0-.215-.249.542.542,0,0,0-.313-.152,4.607,4.607,0,0,0-.829.03l-.78.067a1.967,1.967,0,0,1-.952-.2,1.667,1.667,0,0,1-.632-.7,1.328,1.328,0,0,1-.049-1.12,1.69,1.69,0,0,1,.8-.883,3.448,3.448,0,0,1,.687-.158l.442-.043a.14.14,0,0,0,.074-.109.508.508,0,0,0,.012-.152l.393-.165.792,1.407-.362.188a2.415,2.415,0,0,0-.89-.627,1.306,1.306,0,0,0-.871.049.948.948,0,0,0-.412.408.6.6,0,0,0,.012.524c.166.329.608.426,1.338.359h.068l.135-.018a3.657,3.657,0,0,1,1.24.049,1.653,1.653,0,0,1,.577.292,2.034,2.034,0,0,1,.381.511,1.582,1.582,0,0,1,.067,1.26,1.716,1.716,0,0,1-.859.932l-.313.122-.3.049-.344.018a.859.859,0,0,0-.43.1.159.159,0,0,0-.1.122v.183" transform="translate(-122.486 -7.866)" fill="#df191e" fill-rule="evenodd"/>
</svg>
