<svg xmlns="http://www.w3.org/2000/svg" width="210.984" height="128.75" viewBox="0 0 210.984 128.75">
  <path id="Caminho_1" data-name="Caminho 1" d="M213.6,33.5V39.8h-2.907c-3.516,0-4.1.507-4.1,5.124V57.251h17.794V44.92c0-4.617-.452-5.124-4.046-5.124H217.49V33.5h22.116V39.8H237.19c-3.575,0-4.1.507-4.1,5.124V77.883c0,4.753.53,5.124,4.1,5.124h2.415v6.468H217.49V83.007h2.848c3.594,0,4.046-.371,4.046-5.124V64.07H206.589V77.883c0,4.753.589,5.124,4.1,5.124H213.6v6.468H191.447V83.007H193.9c3.575,0,4.124-.371,4.124-5.124V44.92c0-4.617-.549-5.124-4.124-5.124h-2.455V33.5H213.6m51.106,0V39.8h-2.613c-3.593,0-4.124.507-4.124,5.124V77.883c0,4.753.531,5.124,4.124,5.124h2.613v6.468H242.454V83.007h2.75c3.5,0,3.928-.371,3.928-5.124V44.92c0-4.617-.432-5.124-3.928-5.124h-2.75V33.5h22.254m-95.2-1.754c4.438,0,8.17,1.811,11.961,5.767l1.2-4.987h4.4V55.459h-4.771c-.943-10.811-5.284-16.851-11.647-16.851-7.4,0-12.158,8.377-12.158,23.183,0,14.066,4.634,21.586,12.335,21.586,5.912,0,9.879-5.357,11-15.664h5.243c-.824,15.059-7.09,23.4-17.087,23.4-5.972,0-10.784-2.552-14.671-7.773-4.184-5.65-6.424-13.287-6.424-21.937,0-8.708,2.141-15.838,6.344-21.605,3.967-5.376,8.779-8.046,14.28-8.046m119.613,0c4.38,0,8.229,1.811,11.922,5.767l1.2-4.987h4.439V55.459h-4.694c-1.021-10.811-5.381-16.851-11.705-16.851-7.406,0-12.119,8.377-12.119,23.183,0,14.066,4.655,21.586,12.236,21.586,6.03,0,9.86-5.357,11.018-15.664h5.264c-.825,15.059-7.012,23.4-17.009,23.4-6.069,0-10.841-2.552-14.75-7.773-4.164-5.65-6.4-13.287-6.4-21.937,0-8.708,2.081-15.838,6.4-21.605,3.909-5.376,8.681-8.046,14.2-8.046M228.038,13.691h-.079c-27.851,0-53.03,5.494-71.178,14.3-17.618,8.709-28.5,20.241-28.5,32.866,0,12.682,10.881,24.254,28.5,32.767,18.148,8.962,43.328,14.4,71.178,14.4h.079c27.811,0,53.031-5.436,71.2-14.4,17.539-8.513,28.4-20.085,28.4-32.767,0-12.625-10.861-24.157-28.4-32.866-18.167-8.805-43.387-14.3-71.2-14.3m0-5.825c28.733,0,54.837,5.669,73.692,14.962,19.582,9.584,31.74,23.007,31.74,38.028,0,15.079-12.158,28.5-31.74,38.029-18.856,9.214-44.959,14.961-73.692,14.961v.077h-.079v-.077c-28.715,0-54.877-5.747-73.771-14.961-19.563-9.527-31.7-22.95-31.7-38.029,0-15.021,12.139-28.444,31.7-38.028,18.894-9.294,45.056-14.962,73.771-14.962h.079M151.948,111.914l.865.427a3.8,3.8,0,0,0,2.061.449,4.553,4.553,0,0,0,1.571-1.246l1.159.466-2.416,5.4-1.118-.6a2.548,2.548,0,0,0-1.847-3.215l-.767-.408-1.963,4.169a2.213,2.213,0,0,0-.177,1.753,4.7,4.7,0,0,0,1.768,1.247,5.741,5.741,0,0,0,5.853-.877l1.257.6-2.789,3.8-12.885-5.8.531-1.383.176.077a3.162,3.162,0,0,0,1.749.311c.511-.1.883-.545,1.139-1.265l4.085-8.845a2.721,2.721,0,0,0,.1-1.695,2.973,2.973,0,0,0-1.415-1.13l-.1-.058.57-1.364,12.511,5.65-.589,4.344-1.316-.642a5.5,5.5,0,0,0-.943-2.669,6.073,6.073,0,0,0-2.416-1.851,3.121,3.121,0,0,0-1.9-.37c-.511.1-.826.545-1.159,1.247l-1.591,3.487m10.429,10.559a2.577,2.577,0,0,0-.079,1.617,3.02,3.02,0,0,0,1.591.974l-.433,1.364-5.735-1.618.433-1.421a2.586,2.586,0,0,0,1.807,0,2.018,2.018,0,0,0,.884-1.364l3.044-10.442a2.768,2.768,0,0,0-.648-.857,4.217,4.217,0,0,0-1.257-.546l.452-1.421,6.128,1.733,1.61,12.585,7.993-9.76,5.815,1.753-.432,1.423a3.637,3.637,0,0,0-1.946-.117,2.4,2.4,0,0,0-.864,1.461l-2.671,9.254a2.072,2.072,0,0,0,0,1.636,2.865,2.865,0,0,0,1.631.975l-.374,1.461-8.112-2.436.373-1.363a2.973,2.973,0,0,0,1.965,0c.452-.039.648-.585.883-1.364l2.868-9.586L167.9,127.792l-.865-.274-1.866-14.63-2.789,9.585m26.652,2.691-.825,4.364c-.157.819-.117,1.364.178,1.676.255.39.764.6,1.688.817a2.62,2.62,0,0,0,2.083-.389,4.176,4.176,0,0,0,1.158-2.221,3.465,3.465,0,0,0-.412-2.708,3.74,3.74,0,0,0-2.632-1.3l-1.238-.235m.334-1.461,1.65.273a3.412,3.412,0,0,0,2.455-.176,3.145,3.145,0,0,0,1.1-2.007,2.71,2.71,0,0,0-.334-2.181,2.217,2.217,0,0,0-1.806-1.071,2.12,2.12,0,0,0-1.592.1,1.86,1.86,0,0,0-.766,1.422l-.707,3.643m-.058,9.211-7.7-1.519.354-1.423a3.755,3.755,0,0,0,1.847-.1,1.936,1.936,0,0,0,.884-1.481l1.924-9.468a2.613,2.613,0,0,0-.276-1.676,3.431,3.431,0,0,0-1.708-.877l.216-1.364,8.053,1.578a7.511,7.511,0,0,1,4.222,2.006,3.568,3.568,0,0,1,1,3.487,2.53,2.53,0,0,1-1.257,1.968,5,5,0,0,1-2.671.877,7.155,7.155,0,0,1,2.631,2.4,3.526,3.526,0,0,1,.491,2.591,4.3,4.3,0,0,1-1.06,2.026,3.417,3.417,0,0,1-1.846,1.188,3.886,3.886,0,0,1-1.886.273,23.665,23.665,0,0,1-3.221-.487m6.854,1.344.2-1.441h.177a2.8,2.8,0,0,0,1.335-.235,4.606,4.606,0,0,0,1.041-1.3l5.048-9.839.118-.389.1-.313-.2-.506-.471-.37.1-.876,3.3-.643.609.039,3.554,14.261.335.994.569.6.53.252.766.214-.177,1.461-7.816-.916.215-1.4a2.724,2.724,0,0,0,1.512-.117,1.321,1.321,0,0,0,.472-.819v-.448l-.118-.585-.511-1.909-5.362-.6-.825,1.753-.275.583-.1.332a1.245,1.245,0,0,0,.255.936,3.484,3.484,0,0,0,1.336.428l-.236,1.52-5.48-.663m10.312-5.3-1.533-6.019-2.788,5.59,4.321.429m7.129,7.38.058-1.539c.924,0,1.533-.1,1.847-.467.392-.234.569-.78.569-1.6l.217-9.6a2.506,2.506,0,0,0-.433-1.656,2.916,2.916,0,0,0-1.827-.489l-.118-.058v-1.461l8.564.233-.039,1.5h-.177c-.824-.039-1.414.117-1.649.448-.373.214-.59.76-.59,1.577l-.215,9.645c0,.8.1,1.364.492,1.617a2.568,2.568,0,0,0,1.806.545l1.218.06a4.953,4.953,0,0,0,3.182-1.149,9.754,9.754,0,0,0,2.4-3.215h1.472l-1.472,5.882-15.3-.272m17.206.214-.079-1.423h.079a2.232,2.232,0,0,0,1.336-.486,2.449,2.449,0,0,0,.766-1.4l3.574-10.559V122.3l.058-.273c-.058-.252-.058-.37-.177-.467a.914.914,0,0,0-.648-.292l-.078-.974,3.2-1.092.59-.058,5.775,13.5.491.916.667.545.551.155h.8l.058,1.539-7.836.37-.079-1.461a2.275,2.275,0,0,0,1.414-.449c.355-.155.453-.311.393-.739l-.039-.507-.276-.6-.765-1.735-5.3.214-.628,1.851-.157.662-.059.371a1.243,1.243,0,0,0,.452.877,3.179,3.179,0,0,0,1.355.214l.079,1.48-5.518.214m9.231-6.777-2.416-5.8-1.983,6.039,4.4-.234m20.525.192a2.293,2.293,0,0,0-.667-1.519,3.18,3.18,0,0,0-1.846-.273l-.177-1.48,7.68-1.033.217,1.539a2.03,2.03,0,0,0-1.591,2.278l.392,2.67a10.26,10.26,0,0,1-2.965,1.85,16.928,16.928,0,0,1-3.849,1.13c-2.965.332-5.3-.1-7.227-1.461a8.28,8.28,0,0,1-3.34-6.04,8.7,8.7,0,0,1,.039-2.942,7.851,7.851,0,0,1,1.12-2.726,6.726,6.726,0,0,1,2.671-2.768,10.548,10.548,0,0,1,3.731-1.364h1.807l1.905.331a3.94,3.94,0,0,0,1.59.214c.177,0,.295-.116.433-.272l.2-.7,1.474-.156.942,5.65-1.434.175a6.34,6.34,0,0,0-2.612-2.941,5.708,5.708,0,0,0-3.831-.7,4,4,0,0,0-3.436,2.22,8.484,8.484,0,0,0-.589,5.163,8.966,8.966,0,0,0,2.121,5.124,4.588,4.588,0,0,0,4.183,1.423,6.919,6.919,0,0,0,1.729-.546,4.178,4.178,0,0,0,1.552-.993l-.217-1.852m11.726-6.9.943-.175a3.266,3.266,0,0,0,1.728-.934,3.521,3.521,0,0,0,.687-1.891l1.2-.331,1.258,5.767-1.258.156a2.856,2.856,0,0,0-1.3-1.4,3.044,3.044,0,0,0-1.983-.058l-1.021.214,1.08,4.4c.2.818.433,1.364.864,1.6a3.763,3.763,0,0,0,2.062-.078,5.04,5.04,0,0,0,2.632-1.52,4.723,4.723,0,0,0,1.591-2.767l1.336-.272.058,4.734L268.4,133.675l-.334-1.48h.117a3.3,3.3,0,0,0,1.651-.858,2.141,2.141,0,0,0,.117-1.636l-2.161-9.527a2.436,2.436,0,0,0-.8-1.441,3.127,3.127,0,0,0-1.866-.078l-.117.078-.355-1.442,13.415-3.04,2.083,3.859-1.395.272a4.868,4.868,0,0,0-2.337-1.617,6.463,6.463,0,0,0-3.1.039,2.92,2.92,0,0,0-1.728.839,2.5,2.5,0,0,0-.1,1.793l.806,3.642m28.538,1.617-1.434.507-14.377-8.707,3.084,8.571c.274.838.53,1.208.924,1.364a2.474,2.474,0,0,0,1.747-.156l.491,1.423-5.538,2.007-.511-1.305a3.733,3.733,0,0,0,1.453-1.071,2.528,2.528,0,0,0-.039-1.695l-3.693-10.19a1.166,1.166,0,0,0-.982-.37,3.41,3.41,0,0,0-1.434.332l-.511-1.461,4.832-1.695,12.667,7.714-2.71-7.5c-.236-.838-.55-1.15-.943-1.306a2.655,2.655,0,0,0-1.865.059l-.491-1.364,5.715-2.065.472,1.4a2.9,2.9,0,0,0-1.474,1.092,1.908,1.908,0,0,0,.06,1.637l4.556,12.779m5.263-2.551-1.257.584-2.671-5.475,1.238-.564a10.221,10.221,0,0,0,3.556,2.3,3.607,3.607,0,0,0,3.064-.175,2.27,2.27,0,0,0,1.374-1.461,1.9,1.9,0,0,0-.1-1.91,1.369,1.369,0,0,0-.686-.8,1.735,1.735,0,0,0-1-.487,14.743,14.743,0,0,0-2.652.1l-2.495.214a6.3,6.3,0,0,1-3.045-.642,5.334,5.334,0,0,1-2.023-2.241,4.247,4.247,0,0,1-.157-3.584,5.406,5.406,0,0,1,2.574-2.824,11.034,11.034,0,0,1,2.2-.507l1.414-.137a.448.448,0,0,0,.236-.35,1.627,1.627,0,0,0,.039-.487l1.258-.527,2.533,4.5-1.158.6a7.728,7.728,0,0,0-2.848-2.005,4.178,4.178,0,0,0-2.788.155,3.035,3.035,0,0,0-1.318,1.3,1.933,1.933,0,0,0,.039,1.676c.53,1.052,1.945,1.363,4.282,1.15h.217l.431-.059a11.7,11.7,0,0,1,3.968.156,5.288,5.288,0,0,1,1.846.935,6.508,6.508,0,0,1,1.217,1.636,5.061,5.061,0,0,1,.215,4.033,5.491,5.491,0,0,1-2.749,2.98l-1,.389-.962.156-1.1.058a2.749,2.749,0,0,0-1.374.332.509.509,0,0,0-.314.39v.584" transform="translate(-122.486 -7.866)" fill="#df191e"/>
</svg>
