<svg xmlns="http://www.w3.org/2000/svg" width="68.869" height="42.027" viewBox="0 0 68.869 42.027">
  <g id="logo-chic-scroll" transform="translate(-829 -320)">
    <path id="Caminho_1" data-name="Caminho 1" d="M152.227,16.235v2.054h-.949c-1.148,0-1.34.165-1.34,1.672v4.025h5.808V19.961c0-1.507-.147-1.672-1.321-1.672h-.93V16.235h7.219v2.054h-.788c-1.167,0-1.34.165-1.34,1.672v10.76c0,1.551.173,1.672,1.34,1.672h.788V34.5H153.5V32.393h.93c1.173,0,1.321-.121,1.321-1.672V26.212h-5.808v4.509c0,1.551.192,1.672,1.34,1.672h.949V34.5H145V32.393h.8c1.167,0,1.346-.121,1.346-1.672V19.961c0-1.507-.179-1.672-1.346-1.672H145V16.235h7.232m16.682,0v2.054h-.853c-1.173,0-1.346.165-1.346,1.672v10.76c0,1.551.173,1.672,1.346,1.672h.853V34.5h-7.264V32.393h.9c1.141,0,1.282-.121,1.282-1.672V19.961c0-1.507-.141-1.672-1.282-1.672h-.9V16.235h7.264m-31.075-.572a5.208,5.208,0,0,1,3.9,1.882l.391-1.628h1.436V23.4h-1.557c-.308-3.529-1.725-5.5-3.8-5.5-2.417,0-3.969,2.734-3.969,7.567,0,4.591,1.513,7.046,4.026,7.046,1.93,0,3.225-1.749,3.59-5.113h1.712c-.269,4.916-2.314,7.637-5.577,7.637A5.705,5.705,0,0,1,133.2,32.5a11.963,11.963,0,0,1-2.1-7.161,11.613,11.613,0,0,1,2.071-7.052,5.692,5.692,0,0,1,4.661-2.626m39.044,0a5.162,5.162,0,0,1,3.892,1.882l.391-1.628h1.449V23.4h-1.532c-.333-3.529-1.757-5.5-3.821-5.5-2.417,0-3.956,2.734-3.956,7.567,0,4.591,1.519,7.046,3.994,7.046,1.968,0,3.219-1.749,3.6-5.113h1.718c-.269,4.916-2.289,7.637-5.552,7.637a5.718,5.718,0,0,1-4.815-2.537,12.006,12.006,0,0,1-2.09-7.161,11.371,11.371,0,0,1,2.09-7.052,5.617,5.617,0,0,1,4.635-2.626M156.94,9.767h-.026c-9.091,0-17.31,1.793-23.234,4.668-5.751,2.843-9.3,6.607-9.3,10.728,0,4.14,3.552,7.917,9.3,10.7,5.924,2.925,14.143,4.7,23.234,4.7h.026c9.078,0,17.31-1.774,23.24-4.7,5.725-2.779,9.27-6.556,9.27-10.7,0-4.121-3.545-7.885-9.27-10.728-5.93-2.874-14.162-4.668-23.24-4.668m0-1.9c9.379,0,17.9,1.85,24.054,4.884,6.392,3.128,10.361,7.51,10.361,12.413,0,4.922-3.969,9.3-10.361,12.413-6.155,3.008-14.675,4.884-24.054,4.884v.025h-.026V42.46c-9.373,0-17.913-1.876-24.08-4.884-6.386-3.11-10.348-7.491-10.348-12.413,0-4.9,3.962-9.285,10.348-12.413,6.167-3.034,14.707-4.884,24.08-4.884h.026M132.1,41.829l.282.139a1.241,1.241,0,0,0,.673.147,1.486,1.486,0,0,0,.513-.407l.378.152-.789,1.762-.365-.2a.832.832,0,0,0-.6-1.049l-.25-.133L131.3,43.6a.723.723,0,0,0-.058.572,1.536,1.536,0,0,0,.577.407,1.874,1.874,0,0,0,1.911-.286l.41.2-.91,1.24-4.206-1.895.173-.452.057.025a1.032,1.032,0,0,0,.571.1c.167-.031.288-.178.372-.413l1.333-2.887a.888.888,0,0,0,.032-.553.971.971,0,0,0-.462-.369l-.032-.019.186-.445,4.084,1.844-.192,1.418-.43-.21a1.794,1.794,0,0,0-.308-.871,1.983,1.983,0,0,0-.789-.6,1.019,1.019,0,0,0-.621-.121c-.167.032-.27.178-.378.407l-.519,1.138m3.4,3.447a.841.841,0,0,0-.026.528.986.986,0,0,0,.519.318l-.141.445-1.872-.528.141-.464a.844.844,0,0,0,.59,0,.659.659,0,0,0,.289-.445L136,41.721a.9.9,0,0,0-.211-.28,1.377,1.377,0,0,0-.41-.178l.147-.464,2,.566.526,4.108,2.609-3.186,1.9.572-.141.464a1.187,1.187,0,0,0-.635-.038.784.784,0,0,0-.282.477l-.872,3.021a.676.676,0,0,0,0,.534.935.935,0,0,0,.532.318l-.122.477-2.648-.8.122-.445a.97.97,0,0,0,.641,0c.147-.013.211-.191.288-.445l.936-3.129-3.071,3.714-.282-.089-.609-4.776-.91,3.129m8.7.878-.269,1.424c-.051.267-.038.445.058.547.083.127.25.2.551.267a.855.855,0,0,0,.68-.127,1.363,1.363,0,0,0,.378-.725,1.131,1.131,0,0,0-.135-.884,1.221,1.221,0,0,0-.859-.426l-.4-.077m.109-.477.539.089a1.114,1.114,0,0,0,.8-.057,1.026,1.026,0,0,0,.359-.655.885.885,0,0,0-.109-.712.724.724,0,0,0-.59-.35.692.692,0,0,0-.52.032.607.607,0,0,0-.25.464l-.231,1.189m-.019,3.007-2.514-.5.115-.464a1.226,1.226,0,0,0,.6-.031.632.632,0,0,0,.289-.483l.628-3.091a.853.853,0,0,0-.09-.547,1.12,1.12,0,0,0-.557-.286l.07-.445,2.629.515a2.452,2.452,0,0,1,1.378.655,1.165,1.165,0,0,1,.327,1.138.826.826,0,0,1-.41.642,1.632,1.632,0,0,1-.872.286,2.335,2.335,0,0,1,.859.782,1.151,1.151,0,0,1,.16.846,1.4,1.4,0,0,1-.346.661,1.115,1.115,0,0,1-.6.388,1.268,1.268,0,0,1-.616.089,7.725,7.725,0,0,1-1.051-.159m2.237.439.064-.47h.058a.913.913,0,0,0,.436-.077,1.5,1.5,0,0,0,.34-.426l1.648-3.212.039-.127.032-.1-.064-.165-.154-.121.032-.286,1.077-.21.2.013L151.4,48.6l.109.324.186.2.173.082.25.07-.058.477-2.551-.3.07-.458a.889.889,0,0,0,.494-.038.431.431,0,0,0,.154-.267v-.146l-.039-.191-.167-.623-1.75-.2L148,48.1l-.09.19-.032.108a.406.406,0,0,0,.083.305,1.137,1.137,0,0,0,.436.14l-.077.5-1.789-.216m3.366-1.728-.5-1.965-.91,1.825,1.411.14m2.327,2.409.019-.5c.3,0,.5-.032.6-.153.128-.076.186-.254.186-.522l.071-3.135a.818.818,0,0,0-.141-.541.952.952,0,0,0-.6-.16l-.039-.019V44.3l2.8.076-.013.49h-.058c-.269-.013-.461.038-.538.146-.122.07-.193.248-.193.515l-.07,3.148c0,.261.032.445.16.528a.838.838,0,0,0,.59.178l.4.02a1.617,1.617,0,0,0,1.039-.375,3.184,3.184,0,0,0,.782-1.049h.48l-.48,1.92-4.994-.089m5.616.07-.026-.464h.026a.729.729,0,0,0,.436-.159.8.8,0,0,0,.25-.458l1.167-3.447v-.127l.019-.089c-.019-.082-.019-.121-.058-.152a.3.3,0,0,0-.211-.1l-.025-.318,1.045-.356.193-.019,1.885,4.407.16.3.218.178.18.051h.263l.019.5-2.558.121-.026-.477a.742.742,0,0,0,.461-.146c.116-.051.148-.1.128-.241l-.013-.165-.09-.2-.25-.566-1.731.07-.205.6-.051.216-.019.121a.406.406,0,0,0,.147.286,1.038,1.038,0,0,0,.442.07l.026.483-1.8.07m3.013-2.212-.789-1.895-.647,1.971,1.436-.076m6.7.063a.748.748,0,0,0-.218-.5,1.038,1.038,0,0,0-.6-.089l-.058-.483,2.507-.337.071.5a.663.663,0,0,0-.519.744l.128.871a3.349,3.349,0,0,1-.968.6,5.525,5.525,0,0,1-1.257.369,3.267,3.267,0,0,1-2.359-.477,2.7,2.7,0,0,1-1.09-1.971A2.839,2.839,0,0,1,163.2,46a2.563,2.563,0,0,1,.366-.89,2.2,2.2,0,0,1,.872-.9,3.443,3.443,0,0,1,1.218-.445h.59l.622.108a1.286,1.286,0,0,0,.519.07c.058,0,.1-.038.141-.089l.064-.229.481-.051.308,1.844-.468.057a2.07,2.07,0,0,0-.853-.96,1.863,1.863,0,0,0-1.25-.229,1.306,1.306,0,0,0-1.122.725,2.769,2.769,0,0,0-.192,1.685,2.927,2.927,0,0,0,.692,1.672,1.5,1.5,0,0,0,1.365.464,2.259,2.259,0,0,0,.564-.178,1.364,1.364,0,0,0,.506-.324l-.071-.6m3.828-2.251.308-.057a1.066,1.066,0,0,0,.564-.3,1.149,1.149,0,0,0,.224-.617l.391-.108.411,1.882-.411.051a.932.932,0,0,0-.423-.458.993.993,0,0,0-.647-.019l-.333.07.352,1.437c.064.267.141.445.282.522a1.228,1.228,0,0,0,.673-.025,1.645,1.645,0,0,0,.859-.5,1.542,1.542,0,0,0,.519-.9l.436-.089.019,1.545-4.494,1.03-.109-.483h.038a1.077,1.077,0,0,0,.539-.28.7.7,0,0,0,.038-.534l-.706-3.11a.8.8,0,0,0-.263-.47,1.021,1.021,0,0,0-.609-.025l-.038.025-.116-.471,4.379-.992.68,1.259-.455.089a1.589,1.589,0,0,0-.763-.528,2.11,2.11,0,0,0-1.013.013.953.953,0,0,0-.564.274.815.815,0,0,0-.032.585l.263,1.189M180.7,46l-.468.165-4.693-2.842,1.007,2.8c.09.274.173.394.3.445a.808.808,0,0,0,.57-.051l.16.464-1.808.655-.167-.426a1.219,1.219,0,0,0,.474-.35.825.825,0,0,0-.013-.553l-1.205-3.326a.381.381,0,0,0-.32-.121,1.113,1.113,0,0,0-.468.108l-.167-.477,1.577-.553,4.135,2.518-.885-2.448c-.077-.274-.18-.375-.308-.426a.867.867,0,0,0-.609.019l-.16-.445,1.865-.674.154.458a.948.948,0,0,0-.481.356.623.623,0,0,0,.02.534L180.7,46m1.718-.833-.41.191-.872-1.787.4-.184a3.337,3.337,0,0,0,1.161.75,1.177,1.177,0,0,0,1-.057.741.741,0,0,0,.449-.477.62.62,0,0,0-.032-.623.447.447,0,0,0-.224-.26.566.566,0,0,0-.327-.159,4.812,4.812,0,0,0-.866.031l-.814.07a2.055,2.055,0,0,1-.994-.209,1.741,1.741,0,0,1-.66-.732,1.386,1.386,0,0,1-.051-1.17,1.765,1.765,0,0,1,.84-.922,3.6,3.6,0,0,1,.718-.165l.462-.045a.146.146,0,0,0,.077-.114.531.531,0,0,0,.013-.159l.411-.172.827,1.469-.378.2a2.523,2.523,0,0,0-.93-.655,1.364,1.364,0,0,0-.91.051.99.99,0,0,0-.43.426.631.631,0,0,0,.013.547c.173.343.635.445,1.4.375h.071l.141-.019a3.82,3.82,0,0,1,1.3.051,1.726,1.726,0,0,1,.6.305,2.124,2.124,0,0,1,.4.534,1.652,1.652,0,0,1,.07,1.316,1.792,1.792,0,0,1-.9.973l-.327.127-.314.051-.359.019a.9.9,0,0,0-.449.108.166.166,0,0,0-.1.127v.191" transform="translate(706.514 312.134)" fill="#fff" fill-rule="evenodd"/>
  </g>
</svg>
