<svg id="Grupo_1193" data-name="Grupo 1193" xmlns="http://www.w3.org/2000/svg" width="15.755" height="13.752" viewBox="0 0 15.755 13.752">
  <g id="Grupo_39" data-name="Grupo 39" transform="translate(5.253 0)">
    <g id="Grupo_37" data-name="Grupo 37" transform="translate(0 0)">
      <path id="Caminho_146" data-name="Caminho 146" d="M1325.521,1749a.685.685,0,1,1-.685-.685A.685.685,0,0,1,1325.521,1749Z" transform="translate(-1324.151 -1748.312)" fill="#333"/>
      <path id="Caminho_147" data-name="Caminho 147" d="M1336.273,1759.93a.685.685,0,1,1-.685-.685A.685.685,0,0,1,1336.273,1759.93Z" transform="translate(-1333.381 -1757.697)" fill="#333"/>
      <path id="Caminho_148" data-name="Caminho 148" d="M1347.025,1770.864a.685.685,0,1,1-.685-.685A.685.685,0,0,1,1347.025,1770.864Z" transform="translate(-1342.611 -1767.083)" fill="#333"/>
      <path id="Caminho_149" data-name="Caminho 149" d="M1357.778,1781.8a.685.685,0,1,1-.685-.685A.685.685,0,0,1,1357.778,1781.8Z" transform="translate(-1351.842 -1776.469)" fill="#333"/>
      <path id="Caminho_150" data-name="Caminho 150" d="M1368.53,1792.73a.685.685,0,1,1-.685-.685A.685.685,0,0,1,1368.53,1792.73Z" transform="translate(-1361.071 -1785.854)" fill="#333"/>
      <path id="Caminho_151" data-name="Caminho 151" d="M1357.778,1803.663a.685.685,0,1,1-.685-.685A.685.685,0,0,1,1357.778,1803.663Z" transform="translate(-1351.842 -1795.24)" fill="#333"/>
      <path id="Caminho_152" data-name="Caminho 152" d="M1347.025,1814.6a.685.685,0,1,1-.685-.685A.685.685,0,0,1,1347.025,1814.6Z" transform="translate(-1342.611 -1804.625)" fill="#333"/>
      <path id="Caminho_153" data-name="Caminho 153" d="M1336.273,1825.53a.685.685,0,1,1-.685-.685A.685.685,0,0,1,1336.273,1825.53Z" transform="translate(-1333.381 -1814.011)" fill="#333"/>
      <path id="Caminho_154" data-name="Caminho 154" d="M1325.521,1836.463a.685.685,0,1,1-.685-.685A.685.685,0,0,1,1325.521,1836.463Z" transform="translate(-1324.151 -1823.396)" fill="#333"/>
    </g>
    <g id="Grupo_38" data-name="Grupo 38" transform="translate(3.044 0)">
      <path id="Caminho_155" data-name="Caminho 155" d="M1347.025,1749a.685.685,0,1,1-.685-.685A.685.685,0,0,1,1347.025,1749Z" transform="translate(-1345.655 -1748.312)" fill="#333"/>
      <path id="Caminho_156" data-name="Caminho 156" d="M1357.778,1759.93a.685.685,0,1,1-.685-.685A.685.685,0,0,1,1357.778,1759.93Z" transform="translate(-1354.886 -1757.697)" fill="#333"/>
      <path id="Caminho_157" data-name="Caminho 157" d="M1368.53,1770.864a.685.685,0,1,1-.685-.685A.685.685,0,0,1,1368.53,1770.864Z" transform="translate(-1364.116 -1767.083)" fill="#333"/>
      <path id="Caminho_158" data-name="Caminho 158" d="M1379.282,1781.8a.685.685,0,1,1-.685-.685A.685.685,0,0,1,1379.282,1781.8Z" transform="translate(-1373.345 -1776.469)" fill="#333"/>
      <path id="Caminho_159" data-name="Caminho 159" d="M1390.034,1792.73a.685.685,0,1,1-.685-.685A.685.685,0,0,1,1390.034,1792.73Z" transform="translate(-1382.575 -1785.854)" fill="#333"/>
      <path id="Caminho_160" data-name="Caminho 160" d="M1379.282,1803.663a.685.685,0,1,1-.685-.685A.685.685,0,0,1,1379.282,1803.663Z" transform="translate(-1373.345 -1795.24)" fill="#333"/>
      <path id="Caminho_161" data-name="Caminho 161" d="M1368.53,1814.6a.685.685,0,1,1-.685-.685A.685.685,0,0,1,1368.53,1814.6Z" transform="translate(-1364.116 -1804.625)" fill="#333"/>
      <path id="Caminho_162" data-name="Caminho 162" d="M1357.778,1825.53a.685.685,0,1,1-.685-.685A.685.685,0,0,1,1357.778,1825.53Z" transform="translate(-1354.886 -1814.011)" fill="#333"/>
      <path id="Caminho_163" data-name="Caminho 163" d="M1347.025,1836.463a.685.685,0,1,1-.685-.685A.685.685,0,0,1,1347.025,1836.463Z" transform="translate(-1345.655 -1823.396)" fill="#333"/>
    </g>
  </g>
  <g id="Grupo_41" data-name="Grupo 41" transform="translate(0 0.054)">
    <g id="Grupo_40" data-name="Grupo 40" transform="translate(0 0)">
      <path id="Caminho_164" data-name="Caminho 164" d="M1287.044,1750.4l4.861,5.115-4.861,5.115,1.707,1.706,6.568-6.821-6.568-6.822Z" transform="translate(-1287.044 -1748.696)" fill="#333"/>
    </g>
  </g>
</svg>
